Coordinates
version=1
nRows=9
nColumns=36
inDegrees=yes

Units are S.I. units (second, meters, Newtons, ...)
If the header above contains a line with 'inDegrees', this indicates whether rotational values are in degrees (yes) or radians (no).

endheader
time	pelvis_tilt	pelvis_list	pelvis_rotation	pelvis_tx	pelvis_ty	pelvis_tz	hip_flexion_r	hip_adduction_r	hip_rotation_r	knee_angle_r	knee_angle_r_beta	ankle_angle_r	subtalar_angle_r	mtp_angle_r	hip_flexion_l	hip_adduction_l	hip_rotation_l	knee_angle_l	knee_angle_l_beta	ankle_angle_l	subtalar_angle_l	mtp_angle_l	lumbar_extension	lumbar_bending	lumbar_rotation	arm_flex_r	arm_add_r	arm_rot_r	elbow_flex_r	pro_sup_r	arm_flex_l	arm_add_l	arm_rot_l	elbow_flex_l	pro_sup_l
      0.00000000	      2.30786651	     -1.16097072	      0.14612434	     -1.05775670	      1.27973862	     -0.08703999	     -5.45424823	      1.97529056	      6.29630268	      2.41078370	      0.04207611	      5.97837536	    -11.88434631	     -6.54947116	     -6.30686270	     -1.64513948	      3.73973285	      0.80482629	      0.01404687	      6.96342106	    -14.27379135	     -6.54947116	     -9.96802626	      2.31349313	     -1.72811445	     -0.78745951	     -7.73471960	      1.34616940	     26.80210890	     80.41460895	      0.95717619	     -7.52075261	     16.84071882	     20.06629776	     66.76456334
      0.00416670	      0.45562658	     -1.27977199	     -1.34172618	     -1.05575400	      1.27649712	     -0.08677973	     -2.82193545	      1.85258877	      8.15716735	      3.61266656	      0.06305293	      8.46318179	     -9.65337240	     -7.21010188	     -3.92651449	     -1.29514197	      3.69879296	      1.34697175	      0.02350909	      5.80740942	    -15.81268370	     -7.21010188	     -7.03667252	      2.92875628	     -0.69745822	     -1.73684245	     -6.80449489	     -5.31595882	     26.57893491	     82.63911680	      0.12841177	     -5.22910050	      7.21279900	     18.73607744	     71.85216508
      0.00833330	     -0.57007596	     -0.71429903	     -2.31501804	     -1.05516061	      1.27394959	     -0.08522168	     -1.82901134	      0.99718154	      7.94755848	      3.39781891	      0.05930313	      8.93239987	     -8.52152678	     -7.35236993	     -2.94540191	     -0.63643942	      2.70367264	      1.28085184	      0.02235508	      5.88666097	    -15.27607989	     -7.35236993	     -5.44028129	      2.13673693	      0.00170912	     -2.48630130	     -6.50554804	     -5.76324928	     26.65216924	     78.35911901	     -0.23080301	     -5.47810843	      8.45333009	     19.09194990	     70.29309271
      0.01250000	     -0.53091479	     -0.36658904	     -2.91821854	     -1.05563439	      1.27440924	     -0.08444044	     -1.85180205	      0.49804137	      8.08800068	      3.20209916	      0.05588717	      9.26508922	     -8.02073779	     -7.38325922	     -3.37050546	     -0.16254397	      2.25594545	      0.87828122	      0.01532890	      6.14071672	    -15.04954501	     -7.38325922	     -5.43965748	      1.68317472	      0.52616391	     -2.67564841	     -6.38717404	     -5.97148088	     26.76734150	     76.27084860	     -0.60339001	     -5.74707072	      8.55681380	     19.42046508	     69.01633668
      0.01666670	     -0.67731546	     -0.22043546	     -3.27094366	     -1.05568406	      1.27395285	     -0.08385399	     -1.73295021	      0.31764970	      8.38248266	      2.88839927	      0.05041208	      9.27579632	     -7.99981166	     -7.44390751	     -3.39538686	      0.02875794	      2.24946909	      0.68717906	      0.01199354	      6.21232792	    -15.46132902	     -7.44390751	     -5.15976146	      1.54437419	      1.12537983	     -2.93363510	     -6.59437825	     -4.96352655	     27.07027881	     72.95711585	     -0.40772625	     -5.85200088	     10.47273131	     18.91815448	     66.94154210
      0.02083330	     -0.59229935	     -0.12225350	     -3.51888481	     -1.05602947	      1.27409410	     -0.08361881	     -1.92598663	      0.19836928	      8.60251733	      2.64600098	      0.04618143	      9.16946218	     -8.14227635	     -7.46502159	     -3.47793135	      0.20555973	      2.30700006	      0.66304959	      0.01157240	      6.16891333	    -16.07401874	     -7.46502159	     -5.16694271	      1.43912717	      1.47529756	     -2.80768402	     -6.67835937	     -4.31142167	     26.93079065	     71.38645670	     -0.15790963	     -5.88993566	     11.68981255	     18.58861669	     65.73846232
      0.02500000	     -0.45840007	     -0.03933198	     -3.61876283	     -1.05609383	      1.27397561	     -0.08332612	     -2.18178670	      0.07706804	      8.54718922	      2.45223514	      0.04279958	      9.08330760	     -8.25285955	     -7.48154419	     -3.61593476	      0.32869664	      2.24942321	      0.61465002	      0.01072767	      6.28783228	    -16.30628687	     -7.48154419	     -5.30537709	      1.38049246	      1.57056224	     -2.54115234	     -6.74448063	     -3.91461285	     26.77386464	     71.41957829	      0.20187798	     -5.91413115	     12.93097319	     18.62318189	     64.95419221
      0.02916670	     -0.50388693	      0.04587286	     -3.70883090	     -1.05649192	      1.27382256	     -0.08325759	     -2.22401494	      0.00689501	      8.85999945	      2.25512073	      0.03935928	      8.86464167	     -8.74408475	     -7.49375675	     -3.56751275	      0.42138943	      2.31387950	      0.59688847	      0.01041767	      6.36989968	    -16.33013292	     -7.49375675	     -5.19067214	      1.28087647	      1.79459944	     -2.45249248	     -6.84158536	     -2.93033017	     26.75731450	     68.16393487	      0.59723898	     -5.76095287	     13.07280517	     18.39050405	     62.76599068
      0.03333330	     -0.48703494	      0.08153847	     -3.72446697	     -1.05631579	      1.27373089	     -0.08304047	     -2.29063052	     -0.03044421	      8.78638131	      2.10695696	      0.03677334	      8.93201364	     -8.76036442	     -7.49755283	     -3.55602098	      0.46410373	      2.39288449	      0.57466481	      0.01002979	      6.35442642	    -16.63296083	     -7.49755283	     -5.22635752	      1.27445463	      1.84017616	     -2.32766831	     -6.71476596	     -4.26667327	     26.68532200	     73.97938462	      0.82928024	     -5.83726456	     14.01415357	     18.49844124	     63.86482511
